<svg width="89" height="23" viewBox="0 0 89 23" fill="none" xmlns="http://www.w3.org/2000/svg">
<path fill-rule="evenodd" clip-rule="evenodd" d="M7.536 12.128C2.912 12.128 0.16 11.072 0 8.064H3.472C3.472 9.024 4.416 9.648 7.424 9.648C10.176 9.648 10.848 9.216 10.848 8.496C10.848 7.664 10.336 7.52 6.944 7.296C2.32 6.976 0.272 6.048 0.272 3.52C0.272 1.13599 2.848 0.0639954 6.8 0.0639954C11.2 0.0639954 13.728 1.392 13.824 3.936H10.368C10.368 2.928 9.264 2.54399 6.704 2.54399C4.272 2.54399 3.728 2.944 3.728 3.568C3.728 4.272 4.272 4.496 7.376 4.752C11.568 5.072 14.304 5.35999 14.304 8.352C14.304 11.28 11.6 12.128 7.536 12.128ZM16.4206 0.383995H30.1806V3.2H24.9646V11.808H21.6526V3.2H16.4206V0.383995ZM47.3469 0.383995H44.0509V6.128C44.0509 7.632 43.5069 9.312 40.3069 9.312C37.1229 9.312 36.5789 7.648 36.5789 6.128V0.383995H33.2669V6.24C33.2669 10.144 35.3789 12.128 40.3069 12.128C45.2189 12.128 47.3469 10.128 47.3469 6.24V0.383995ZM50.6406 0.383995H58.8646C61.6646 0.383995 64.2086 2.176 64.2086 6.096C64.2086 10.016 61.6646 11.808 58.8646 11.808H50.6406V0.383995ZM53.9526 3.2V8.992H57.4726C59.2806 8.992 60.7526 8.752 60.7526 6.096C60.7526 3.44 59.2806 3.2 57.4726 3.2H53.9526ZM67.2956 11.808H70.6076V0.383995H67.2956V11.808ZM88.5293 6.08C88.5293 9.87199 85.9053 12.128 81.1053 12.128C76.2893 12.128 73.6813 9.88799 73.6813 6.08C73.6813 2.28799 76.2893 0.0639954 81.1053 0.0639954C85.9053 0.0639954 88.5293 2.30399 88.5293 6.08ZM77.1533 6.08C77.1533 8.09599 78.3053 9.312 81.1053 9.312C83.9213 9.312 85.0732 8.08 85.0732 6.08C85.0732 4.09599 83.9373 2.88 81.1053 2.88C78.2893 2.88 77.1533 4.08 77.1533 6.08Z" fill="white"/>
<path d="M8.13064 21.9688L5.20807 16.2871H2.93053L0 21.9688H1.77584L2.31735 20.8946H5.82125L6.36276 21.9688H8.13064ZM4.0693 17.441L5.19214 19.6611H2.94646L4.0693 17.441Z" fill="white"/>
<path d="M14.4981 19.6452C15.1431 19.4065 15.5094 18.9131 15.5094 18.0776C15.5094 16.876 14.6892 16.2871 13.208 16.2871H8.84404V21.9688H10.4925V20.3535H13.1522C13.7097 20.3535 13.8371 20.4967 13.8371 21.0298V21.9688H15.4776V20.7195C15.4776 20.0829 15.1192 19.7089 14.4981 19.6452ZM12.8019 17.632C13.3036 17.632 13.7814 17.632 13.7814 18.3243C13.7814 19.0086 13.3036 19.0086 12.8019 19.0086H10.4925V17.632H12.8019Z" fill="white"/>
<path d="M23.0709 16.2871H16.2223V17.6877H18.8264V21.9688H20.4748V17.6877H23.0709V16.2871Z" fill="white"/>
<path d="M29.8394 16.2871H23.9465V21.9688H29.8394V20.6797H25.5949V19.7726H29.6802V18.4834H25.5949V17.5763H29.8394V16.2871Z" fill="white"/>
<path d="M36.7141 16.2871H30.8212V21.9688H32.4696V20.2898H36.2363V18.8972H32.4696V17.6877H36.7141V16.2871Z" fill="white"/>
<path d="M44.6814 21.9688L41.7589 16.2871H39.4813L36.5508 21.9688H38.3266L38.8681 20.8946H42.372L42.9135 21.9688H44.6814ZM40.6201 17.441L41.7429 19.6611H39.4972L40.6201 17.441Z" fill="white"/>
<path d="M44.6775 19.12C44.6775 21.0696 45.9278 22.128 48.2133 22.128C50.3076 22.128 51.4942 21.2208 51.6614 19.7487H49.9095C49.798 20.2818 49.2644 20.7275 48.2133 20.7275C47.0028 20.7275 46.4056 20.1227 46.4056 19.12C46.4056 18.1253 46.9949 17.5285 48.2133 17.5285C49.2644 17.5285 49.798 17.9662 49.9095 18.4914H51.6614C51.4942 17.0272 50.3076 16.128 48.2133 16.128C45.9278 16.128 44.6775 17.1784 44.6775 19.12Z" fill="white"/>
<path d="M59.0462 16.2871H52.1976V17.6877H54.8017V21.9688H56.4501V17.6877H59.0462V16.2871Z" fill="white"/>
<path d="M65.4767 19.0723C66.0342 18.8495 66.4005 18.4834 66.4005 17.8389C66.4005 16.7009 65.3334 16.128 63.454 16.128C61.3517 16.128 60.1572 16.7646 60.0457 18.2686H61.6623C61.6623 17.5683 62.1162 17.3057 63.3266 17.3057C64.3698 17.3057 64.6884 17.5285 64.6884 17.9264C64.6884 18.4198 64.2583 18.5948 62.8488 18.5948V19.5577C64.338 19.5577 64.768 19.7089 64.768 20.2341C64.768 20.6956 64.4017 20.8946 63.3505 20.8946C62.1958 20.8946 61.6623 20.6558 61.6623 19.9874H59.9899C60.1014 21.4914 61.1765 22.128 63.4381 22.128C65.3971 22.128 66.4801 21.5232 66.4801 20.3375C66.4801 19.6691 66.074 19.2871 65.4767 19.0723Z" fill="white"/>
<path d="M70.6921 22.128C72.898 22.128 74.0686 20.8866 74.0686 19.12C74.0686 17.3614 72.898 16.128 70.6921 16.128C68.4783 16.128 67.3157 17.3535 67.3157 19.12C67.3157 20.8946 68.4783 22.128 70.6921 22.128ZM70.6921 20.7832C69.6171 20.7832 68.988 20.2182 68.988 19.12C68.988 18.0298 69.6091 17.4728 70.6921 17.4728C71.7752 17.4728 72.4043 18.0378 72.4043 19.12C72.4043 20.2102 71.7672 20.7832 70.6921 20.7832Z" fill="white"/>
<path d="M78.1578 22.128C80.3637 22.128 81.5343 20.8866 81.5343 19.12C81.5343 17.3614 80.3637 16.128 78.1578 16.128C75.944 16.128 74.7813 17.3535 74.7813 19.12C74.7813 20.8946 75.944 22.128 78.1578 22.128ZM78.1578 20.7832C77.0828 20.7832 76.4537 20.2182 76.4537 19.12C76.4537 18.0298 77.0748 17.4728 78.1578 17.4728C79.2409 17.4728 79.87 18.0378 79.87 19.12C79.87 20.2102 79.2329 20.7832 78.1578 20.7832Z" fill="white"/>
<path d="M85.6235 22.128C87.8294 22.128 89 20.8866 89 19.12C89 17.3614 87.8294 16.128 85.6235 16.128C83.4097 16.128 82.247 17.3535 82.247 19.12C82.247 20.8946 83.4097 22.128 85.6235 22.128ZM85.6235 20.7832C84.5485 20.7832 83.9194 20.2182 83.9194 19.12C83.9194 18.0298 84.5405 17.4728 85.6235 17.4728C86.7065 17.4728 87.3357 18.0378 87.3357 19.12C87.3357 20.2102 86.6986 20.7832 85.6235 20.7832Z" fill="white"/>
<script xmlns=""/></svg>