<svg width="100%" height="100%" viewBox="0 0 141 30" fill="none" xmlns="http://www.w3.org/2000/svg">
<rect width="30" height="30" rx="4" fill="#F9FFF2" style="--darkreader-inline-fill: var(--darkreader-text-f9fff2, #e3ffc3);" data-darkreader-inline-fill=""></rect>
<path d="M2.28284 15.5L4.8592 12.9236C10.1837 7.59918 18.8163 7.59918 24.1408 12.9236L26.7172 15.5L24.1408 18.0764C18.8163 23.4008 10.1837 23.4008 4.8592 18.0764L2.28284 15.5Z" fill="#085D44" stroke="#085D44" stroke-width="0.4" style="--darkreader-inline-stroke: var(--darkreader-text-085d44, #c8c3bc); --darkreader-inline-fill: var(--darkreader-text-085d44, #c8c3bc);" data-darkreader-inline-stroke="" data-darkreader-inline-fill=""></path>
<circle cx="14.4994" cy="15.5001" r="1.82542" fill="#D7E3FF" stroke="#C1DDA0" stroke-width="0.192141" style="--darkreader-inline-stroke: var(--darkreader-text-c1dda0, #bbda97); --darkreader-inline-fill: var(--darkreader-text-d7e3ff, #b0d6ff);" data-darkreader-inline-stroke="" data-darkreader-inline-fill=""></circle>
<path d="M45.7004 24.36C40.9004 24.36 37.1804 20.448 37.1804 15.36C37.1804 10.296 40.9004 6.408 45.7004 6.408C50.0204 6.408 53.4764 9.288 54.1244 13.536H51.3164C50.8364 10.752 48.5804 8.784 45.7244 8.784C42.3164 8.784 39.9164 11.544 39.9164 15.36C39.9164 19.224 42.3164 21.984 45.7244 21.984C48.5804 21.984 50.8364 19.992 51.3164 17.208H54.1244C53.4764 21.48 50.0204 24.36 45.7004 24.36ZM64.3801 24V22.032C63.5881 23.448 62.1721 24.24 60.3001 24.24C57.6601 24.24 55.9321 22.728 55.9321 20.4C55.9321 17.904 57.9241 16.608 61.7161 16.608C62.4601 16.608 63.0601 16.632 64.0921 16.752V15.816C64.0921 13.992 63.1081 12.96 61.4281 12.96C59.6521 12.96 58.5721 14.016 58.5001 15.792H56.2921C56.4121 12.936 58.4521 11.04 61.4281 11.04C64.5721 11.04 66.3961 12.816 66.3961 15.84V24H64.3801ZM58.2361 20.328C58.2361 21.648 59.2201 22.512 60.7801 22.512C62.8201 22.512 64.0921 21.24 64.0921 19.296V18.264C63.1561 18.144 62.4841 18.12 61.8601 18.12C59.4361 18.12 58.2361 18.84 58.2361 20.328ZM72.061 16.824V24H69.637V11.28H71.893V13.392C72.757 11.976 74.197 11.04 75.949 11.04C78.565 11.04 80.293 12.72 80.293 15.768V24H77.869V16.584C77.869 14.4 76.909 13.176 75.109 13.176C73.453 13.176 72.061 14.568 72.061 16.824ZM91.216 24V22.032C90.424 23.448 89.008 24.24 87.136 24.24C84.496 24.24 82.768 22.728 82.768 20.4C82.768 17.904 84.76 16.608 88.552 16.608C89.296 16.608 89.896 16.632 90.928 16.752V15.816C90.928 13.992 89.944 12.96 88.264 12.96C86.488 12.96 85.408 14.016 85.336 15.792H83.128C83.248 12.936 85.288 11.04 88.264 11.04C91.408 11.04 93.232 12.816 93.232 15.84V24H91.216ZM85.072 20.328C85.072 21.648 86.056 22.512 87.616 22.512C89.656 22.512 90.928 21.24 90.928 19.296V18.264C89.992 18.144 89.32 18.12 88.696 18.12C86.272 18.12 85.072 18.84 85.072 20.328ZM98.921 24H96.473V6.768H98.921V24Z" fill="#F9FFF2" style="--darkreader-inline-fill: var(--darkreader-background-f9fff2, #263b00);" data-darkreader-inline-fill=""></path>
<path d="M119.685 19.056C119.685 22.2 117.381 24 113.805 24H107.493V6.768H113.469C116.949 6.768 119.037 8.376 119.037 11.28C119.037 12.912 118.053 14.304 116.397 15.024C118.533 15.624 119.685 17.088 119.685 19.056ZM113.301 8.88H109.917V14.064H113.301C115.389 14.064 116.517 13.08 116.517 11.472C116.517 9.864 115.389 8.88 113.301 8.88ZM113.637 16.176H109.917V21.888H113.637C115.893 21.888 117.165 20.808 117.165 18.984C117.165 17.232 115.893 16.176 113.637 16.176ZM125.487 8.328C125.487 9.24 124.767 9.936 123.735 9.936C122.703 9.936 121.959 9.24 121.959 8.328C121.959 7.392 122.703 6.72 123.735 6.72C124.767 6.72 125.487 7.392 125.487 8.328ZM124.959 24H122.535V11.28H124.959V24ZM133.653 24.24C130.053 24.24 127.413 21.408 127.413 17.64C127.413 13.872 130.053 11.04 133.653 11.04C137.253 11.04 139.893 13.872 139.893 17.64C139.893 21.408 137.253 24.24 133.653 24.24ZM133.653 22.104C135.741 22.104 137.397 20.424 137.397 17.64C137.397 14.856 135.741 13.2 133.653 13.2C131.565 13.2 129.933 14.856 129.933 17.64C129.933 20.424 131.565 22.104 133.653 22.104Z" fill="#D5F0B5" style="--darkreader-inline-fill: var(--darkreader-text-d5f0b5, #caeca1);" data-darkreader-inline-fill=""></path>
</svg>
