<?xml version="1.0" encoding="utf-8"?>
<!-- Generator: Adobe Illustrator 23.0.1, SVG Export Plug-In . SVG Version: 6.00 Build 0)  -->
<svg version="1.1" id="Calque_1" xmlns="http://www.w3.org/2000/svg" xmlns:xlink="http://www.w3.org/1999/xlink" x="0px" y="0px"
	 viewBox="0 0 538.6 304.74" style="enable-background:new 0 0 538.6 304.74;" xml:space="preserve">
<style type="text/css">
	.st0{fill:#00B3DD;}
	.st1{fill:#00B2DD;}
	.st2{fill:#00B0DE;}
	.st3{fill:#00AFDE;}
	.st4{fill:#00AEDF;}
	.st5{fill:#00ACDF;}
	.st6{fill:#00ABE0;}
	.st7{fill:#00A9E0;}
	.st8{fill:#00A8E1;}
	.st9{fill:#00A7E1;}
	.st10{fill:#00A5E2;}
	.st11{fill:#00A4E2;}
	.st12{fill:#00A3E2;}
	.st13{fill:#00A1E3;}
	.st14{fill:#00A0E3;}
	.st15{fill:#009FE3;}
	.st16{fill:#00B7DC;}
	.st17{fill:#01B8DB;}
	.st18{fill:#21BADA;}
	.st19{fill:#31BBDA;}
	.st20{fill:#3DBDD9;}
	.st21{fill:#47BED8;}
	.st22{fill:#50C0D8;}
	.st23{fill:#58C1D7;}
	.st24{fill:#60C3D6;}
	.st25{fill:#67C4D6;}
	.st26{fill:#6DC6D5;}
	.st27{fill:#74C7D4;}
	.st28{fill:#7AC9D3;}
	.st29{fill:#80CAD3;}
	.st30{fill:#85CCD2;}
	.st31{fill:#8ACDD1;}
	.st32{fill:#8FCFD0;}
	.st33{fill:#94D0CF;}
	.st34{fill:#99D2CE;}
	.st35{fill:#9DD3CD;}
	.st36{fill:#A2D5CC;}
	.st37{fill:#A6D6CC;}
	.st38{fill:#ABD8CB;}
	.st39{fill:#00B5DC;}
	.st40{fill:#878787;}
</style>
<g>
	<g>
		<path class="st0" d="M276.91,117.64l-4.79,4.79c-0.79,0.79-0.79,2.08,0,2.87l24.06,24.02c0.79,0.79,2.08,0.79,2.87,0l4.73-4.73
			c0.79-0.79,0.79-2.08,0-2.87l-24-24.09C279,116.85,277.71,116.85,276.91,117.64z"/>
		<path class="st1" d="M290.99,103.57l5.17-5.17c0.79-0.79,2.08-0.79,2.87,0l24.04,24.05c0.79,0.79,0.79,2.08,0,2.87l-5.18,5.18
			c-0.79,0.79-2.08,0.79-2.87,0l-24.02-24.07C290.2,105.65,290.2,104.36,290.99,103.57z"/>
		<path class="st2" d="M316.52,78.17c-1.8,1.74-4.6,4.5-6.29,6.17c-0.8,0.79-0.8,2.08,0,2.87l24.02,24.06
			c0.79,0.79,2.07,0.8,2.87,0.01c1.4-1.39,3.53-3.5,4.96-4.89c0.78-0.76,0.82-2,0.09-2.81l-22.72-25.32
			C318.67,77.42,317.35,77.37,316.52,78.17z"/>
		<path class="st3" d="M345.57,59.05c-3.45,1.49-6.83,3.18-10.13,5.07c-0.98,0.56-1.3,1.83-0.72,2.8l17.47,29.19
			c0.56,0.93,1.76,1.28,2.71,0.74c1.67-0.94,3.38-1.79,5.11-2.57c0.99-0.44,1.43-1.6,1.03-2.61l-12.8-31.52
			C347.82,59.11,346.61,58.6,345.57,59.05z"/>
		<path class="st4" d="M368.43,52.22c3.64-0.63,7.3-1.07,10.97-1.3c1.39-0.09,2.59,0.97,2.64,2.36l1.26,33.14
			c0.05,1.31-0.94,2.44-2.25,2.54c-1.78,0.14-3.55,0.35-5.31,0.63c-1.3,0.21-2.52-0.66-2.78-1.94l-6.55-32.51
			C366.14,53.78,367.06,52.46,368.43,52.22z"/>
		<path class="st5" d="M415.3,55.02c-3.77-1.13-7.59-2.04-11.44-2.73c-1.37-0.24-2.68,0.67-2.89,2.05l-5.05,32.77
			c-0.2,1.3,0.65,2.54,1.94,2.78c1.91,0.36,3.81,0.81,5.69,1.35c1.26,0.36,2.57-0.36,2.99-1.6l10.41-31.49
			C417.39,56.83,416.63,55.42,415.3,55.02z"/>
		<path class="st6" d="M437.67,64.83c3.66,2.16,7.21,4.58,10.62,7.24c1.08,0.84,1.24,2.43,0.37,3.49l-21.08,25.61
			c-0.83,1.01-2.32,1.2-3.37,0.41c-1.7-1.29-3.45-2.47-5.25-3.57c-1.13-0.69-1.5-2.14-0.86-3.29l16.19-28.95
			C434.96,64.56,436.49,64.13,437.67,64.83z"/>
		<path class="st7" d="M473.21,100.18c-2.28-3.81-4.84-7.51-7.67-11.06c-0.87-1.09-2.45-1.27-3.52-0.37L436.56,110
			c-1.01,0.84-1.18,2.34-0.37,3.38c1.41,1.82,2.72,3.7,3.9,5.62c0.69,1.12,2.14,1.48,3.29,0.84l28.93-16.23
			C473.52,102.93,473.92,101.38,473.21,100.18z"/>
		<path class="st8" d="M483.13,122.52c1.41,4.61,2.49,9.31,3.23,14.04c0.22,1.38-0.73,2.67-2.11,2.85l-32.88,4.33
			c-1.3,0.17-2.52-0.71-2.74-2c-0.42-2.51-1-5-1.72-7.46c-0.37-1.26,0.34-2.59,1.59-3.01L480,120.88
			C481.32,120.44,482.73,121.19,483.13,122.52z"/>
		<path class="st9" d="M484.81,176c1.19-4.99,2-10.06,2.42-15.14c0.11-1.37-0.94-2.55-2.31-2.63l-33.11-1.94
			c-1.32-0.08-2.46,0.9-2.59,2.21c-0.26,2.66-0.68,5.3-1.27,7.91c-0.29,1.29,0.5,2.57,1.77,2.91l32.07,8.47
			C483.12,178.14,484.5,177.34,484.81,176z"/>
		<path class="st10" d="M476.27,199.02c-2.46,4.76-5.32,9.36-8.58,13.76c-0.83,1.12-2.41,1.35-3.51,0.49l-26.14-20.41
			c-1.04-0.81-1.26-2.3-0.49-3.36c1.71-2.37,3.23-4.83,4.58-7.35c0.62-1.17,2.05-1.62,3.24-1.04l29.81,14.55
			C476.42,196.27,476.91,197.79,476.27,199.02z"/>
		<path class="st11" d="M436.71,240.44c4.94-2.85,9.69-6.15,14.2-9.9c1.05-0.88,1.16-2.46,0.25-3.5L429.3,202.1
			c-0.87-0.99-2.36-1.13-3.38-0.3c-2.43,1.97-4.97,3.73-7.6,5.29c-1.13,0.67-1.52,2.12-0.89,3.28l15.86,29.13
			C433.96,240.72,435.5,241.14,436.71,240.44z"/>
		<path class="st12" d="M414.31,249.98c-5.95,1.72-12.02,2.89-18.14,3.51c-1.37,0.14-2.57-0.9-2.67-2.27l-2.51-33.06
			c-0.1-1.31,0.84-2.48,2.15-2.63c3.3-0.37,6.58-1,9.8-1.89c1.26-0.35,2.57,0.38,2.97,1.63l10.04,31.61
			C416.36,248.18,415.63,249.59,414.31,249.98z"/>
		<path class="st13" d="M352.89,248.49c6.17,2.12,12.5,3.62,18.9,4.52c1.38,0.19,2.66-0.77,2.81-2.16l3.74-32.95
			c0.15-1.31-0.76-2.5-2.06-2.7c-3.49-0.53-6.95-1.36-10.33-2.48c-1.25-0.41-2.6,0.25-3.06,1.48l-11.54,31.09
			C350.87,246.61,351.57,248.04,352.89,248.49z"/>
		<path class="st14" d="M334.3,237.01c-0.67,1.1-2.08,1.49-3.23,0.9c-5.43-2.83-12.92-9.76-16.22-12.93
			c-0.93-0.89-0.94-2.37-0.03-3.28l23.55-23.61c0.94-0.94,2.45-0.97,3.42-0.06c2.12,1.97,5.83,5.28,9.03,7.41
			c1.07,0.71,1.38,2.22,0.71,3.32L334.3,237.01z"/>
		<path class="st15" d="M300.28,210.43l-12.04-12.04c-0.96-0.96-0.96-2.52,0-3.48l23.47-23.4c0.96-0.96,2.52-0.96,3.48,0
			l11.94,11.94c0.96,0.96,0.96,2.51,0,3.48l-23.37,23.5C302.81,211.39,301.24,211.39,300.28,210.43z"/>
		<path class="st16" d="M262.13,185.84l4.1-4.1c0.79-0.79,0.79-2.08,0-2.87l-24.01-24.08c-0.79-0.8-2.08-0.8-2.87,0l-4.05,4.05
			c-0.79,0.79-0.79,2.07-0.01,2.87l23.96,24.13C260.05,186.63,261.34,186.64,262.13,185.84z"/>
		<path class="st17" d="M244.28,203.69l3.77-3.77c0.79-0.79,0.79-2.08,0-2.87l-24.03-24.06c-0.79-0.79-2.08-0.79-2.87,0l-3.74,3.74
			c-0.79,0.79-0.79,2.08,0,2.87l23.99,24.09C242.2,204.49,243.48,204.49,244.28,203.69z"/>
		<path class="st18" d="M230.2,217.78l-3.49,3.49c-0.79,0.79-2.08,0.79-2.87,0l-24.01-24.07c-0.79-0.79-0.79-2.08,0-2.87l3.54-3.54
			c0.8-0.8,2.09-0.79,2.88,0.01l23.96,24.13C230.99,215.7,230.99,216.99,230.2,217.78z"/>
		<path class="st19" d="M203.85,239.73c1.84-1.09,3.65-2.25,5.42-3.47c0.93-0.64,1.15-1.93,0.49-2.85l-19.77-27.68
			c-0.63-0.89-1.86-1.12-2.77-0.51c-0.72,0.48-1.45,0.95-2.19,1.4c-0.93,0.57-1.23,1.77-0.7,2.72l16.71,29.63
			C201.61,239.96,202.87,240.31,203.85,239.73z"/>
		<path class="st20" d="M182.73,249.22c-2.15,0.68-4.32,1.29-6.5,1.83c-0.89,0.22-1.78-0.35-1.98-1.24l-7.71-33.94
			c-0.2-0.87,0.34-1.73,1.21-1.95c0.97-0.25,1.93-0.52,2.88-0.81c0.85-0.26,1.76,0.19,2.05,1.03l11.1,32.98
			C184.07,248,183.6,248.95,182.73,249.22z"/>
		<path class="st21" d="M147.41,253.9c2.09,0.09,4.18,0.12,6.28,0.08c0.91-0.02,1.63-0.79,1.6-1.7l-1.17-34.77
			c-0.03-0.89-0.77-1.59-1.67-1.58c-0.93,0.01-1.86,0-2.79-0.04c-0.89-0.03-1.65,0.64-1.71,1.53l-2.1,34.73
			C145.8,253.07,146.49,253.86,147.41,253.9z"/>
		<path class="st22" d="M119.34,248.67c1.85,0.62,3.72,1.19,5.6,1.71c0.88,0.24,1.79-0.3,2.01-1.18l8.68-33.7
			c0.22-0.87-0.29-1.74-1.16-1.99c-0.8-0.23-1.59-0.47-2.39-0.73c-0.85-0.28-1.77,0.16-2.07,1l-11.69,32.78
			C118.03,247.43,118.48,248.38,119.34,248.67z"/>
		<path class="st23" d="M98.75,239.03c-1.54-0.94-3.06-1.93-4.55-2.97c-0.75-0.52-0.92-1.56-0.39-2.3l20.23-28.32
			c0.52-0.73,1.52-0.89,2.26-0.39c0.63,0.43,1.26,0.84,1.9,1.24c0.76,0.48,1.01,1.46,0.56,2.23l-17.75,29.94
			C100.54,239.25,99.52,239.51,98.75,239.03z"/>
		<path class="st24" d="M73.75,217.38c1.06,1.27,2.15,2.51,3.28,3.74c0.62,0.67,1.67,0.7,2.33,0.07l25.24-23.95
			c0.65-0.62,0.67-1.63,0.07-2.3c-0.44-0.49-0.88-0.98-1.3-1.48c-0.58-0.68-1.59-0.79-2.29-0.23l-27.09,21.84
			C73.28,215.63,73.16,216.68,73.75,217.38z"/>
		<path class="st25" d="M59.19,194.13c0.64,1.42,1.31,2.83,2.02,4.23c0.41,0.81,1.42,1.12,2.22,0.7l30.77-16.26
			c0.79-0.42,1.09-1.39,0.69-2.19c-0.26-0.52-0.51-1.04-0.75-1.57c-0.38-0.81-1.32-1.19-2.14-0.84l-31.96,13.77
			C59.2,192.32,58.81,193.3,59.19,194.13z"/>
		<path class="st26" d="M52.24,172.47c-0.28-1.39-0.53-2.79-0.75-4.2c-0.14-0.9,0.49-1.75,1.4-1.87l34.44-4.83
			c0.88-0.12,1.71,0.47,1.85,1.34c0.09,0.52,0.18,1.04,0.28,1.56c0.17,0.87-0.4,1.71-1.27,1.9l-34,7.36
			C53.3,173.94,52.41,173.37,52.24,172.47z"/>
		<path class="st27" d="M50.8,141.63c-0.14,1.31-0.25,2.63-0.34,3.95c-0.06,0.91,0.65,1.69,1.56,1.74l34.75,1.73
			c0.88,0.04,1.65-0.62,1.71-1.5c0.03-0.45,0.07-0.9,0.12-1.35c0.08-0.88-0.56-1.66-1.43-1.77l-34.53-4.25
			C51.73,140.07,50.9,140.72,50.8,141.63z"/>
		<path class="st28" d="M56.95,115.95c-0.45,1.17-0.87,2.34-1.28,3.53c-0.28,0.82,0.18,1.72,1,1.99l33.24,10.79
			c0.8,0.26,1.67-0.16,1.95-0.96c0.15-0.41,0.29-0.83,0.45-1.24c0.29-0.79-0.11-1.67-0.89-1.98l-32.44-13.01
			C58.19,114.75,57.26,115.14,56.95,115.95z"/>
		<path class="st29" d="M67.37,95.84c0.64-0.95,1.3-1.9,1.97-2.84c0.51-0.71,1.5-0.85,2.2-0.33l28.02,20.89
			c0.68,0.51,0.82,1.47,0.33,2.16c-0.19,0.27-0.38,0.54-0.57,0.81c-0.48,0.7-1.42,0.91-2.14,0.44L67.83,98.02
			C67.1,97.55,66.89,96.56,67.37,95.84z"/>
		<path class="st30" d="M86.82,74.26c-0.79,0.66-1.58,1.34-2.35,2.03c-0.65,0.58-0.69,1.58-0.11,2.22l23.59,25.78
			c0.58,0.63,1.54,0.67,2.19,0.11c0.2-0.18,0.4-0.35,0.61-0.52c0.65-0.55,0.75-1.51,0.22-2.18L89.03,74.48
			C88.48,73.81,87.48,73.7,86.82,74.26z"/>
		<path class="st31" d="M108.25,60.52c-0.85,0.41-1.7,0.82-2.55,1.25c-0.77,0.39-1.07,1.35-0.66,2.12l16.34,30.9
			c0.4,0.76,1.33,1.04,2.09,0.66c0.21-0.1,0.41-0.21,0.62-0.31c0.77-0.37,1.11-1.28,0.75-2.06l-14.51-31.8
			C109.98,60.5,109.04,60.15,108.25,60.52z"/>
		<path class="st32" d="M129.61,53.17c0.84-0.19,1.68-0.36,2.53-0.53c0.85-0.17,1.68,0.4,1.83,1.26l6.25,34.39
			c0.15,0.84-0.4,1.64-1.24,1.81c-0.15,0.03-0.3,0.06-0.45,0.09c-0.83,0.18-1.66-0.33-1.86-1.15l-8.23-33.97
			C128.24,54.22,128.76,53.36,129.61,53.17z"/>
		<path class="st33" d="M156.94,50.84c-0.78-0.04-1.56-0.07-2.33-0.09c-0.87-0.02-1.58,0.68-1.59,1.55l-0.38,34.94
			c-0.01,0.85,0.67,1.55,1.52,1.58c0.11,0,0.23,0.01,0.34,0.01c0.85,0.04,1.58-0.6,1.64-1.46l2.27-34.87
			C158.47,51.64,157.81,50.88,156.94,50.84z"/>
		<path class="st34" d="M181.21,55.02c-0.66-0.2-1.33-0.39-2-0.58c-0.84-0.23-1.71,0.28-1.93,1.12l-8.87,33.8
			c-0.22,0.83,0.27,1.67,1.1,1.9c0.07,0.02,0.14,0.04,0.21,0.06c0.82,0.24,1.68-0.21,1.94-1.02l10.58-33.31
			C182.51,56.16,182.05,55.27,181.21,55.02z"/>
		<path class="st35" d="M201.99,63.9c0.53,0.3,1.05,0.6,1.58,0.91c0.75,0.44,0.98,1.42,0.53,2.16l-18.23,29.82
			c-0.45,0.73-1.39,0.96-2.13,0.53c-0.01-0.01-0.02-0.01-0.03-0.02c-0.74-0.43-1.01-1.36-0.61-2.11l16.75-30.68
			C200.27,63.75,201.23,63.47,201.99,63.9z"/>
		<path class="st36" d="M221.61,78.41c0.36,0.35,0.73,0.7,1.06,1.02c0.63,0.61,0.64,1.61,0.02,2.22l-24.62,24.8
			c-0.6,0.6-1.56,0.61-2.17,0.02c0,0-0.01-0.01-0.01-0.01c-0.61-0.58-0.63-1.55-0.06-2.17l23.55-25.81
			C219.96,77.84,220.97,77.81,221.61,78.41z"/>
		<path class="st37" d="M236.17,92.9l0.39,0.39c0.61,0.61,0.61,1.6,0,2.21l-24.7,24.72c-0.61,0.61-1.6,0.61-2.21,0l-0.39-0.39
			c-0.61-0.61-0.61-1.6,0-2.21l24.7-24.71C234.57,92.29,235.56,92.29,236.17,92.9z"/>
		<path class="st38" d="M249.96,106.69l0.28,0.28c0.61,0.61,0.61,1.6,0,2.21l-24.7,24.71c-0.61,0.61-1.6,0.61-2.21,0l-0.31-0.31
			c-0.61-0.61-0.61-1.6,0-2.21l24.73-24.68C248.36,106.08,249.35,106.08,249.96,106.69z"/>
		<path class="st39" d="M253.5,140.82l4.71-4.65c0.8-0.79,2.09-0.78,2.88,0.03l23.78,24.31c0.78,0.8,0.77,2.08-0.03,2.87l-4.38,4.32
			c-0.79,0.78-2.07,0.78-2.86-0.01L253.5,143.7C252.7,142.91,252.7,141.61,253.5,140.82z"/>
	</g>
</g>
</svg>
