<svg width="201" height="48" version="1.1" xmlns="http://www.w3.org/2000/svg" x="0" y="0" viewBox="0 0 898.58 218.27" style="enable-background:new 0 0 898.58 218.27" xml:space="preserve">
  <path style="fill:#525251" d="M162.51 156.99c-13.47 20.54-35.56 33.93-60.53 33.93-41.03 0-74.29-36.17-74.29-80.79s33.26-80.79 74.29-80.79c26.2 0 47.17 11.52 60.4 33.8L171 35.91l17.42 35.95-11 38.28 11 38.08L171 184.25l-8.49-27.26zm-59.6 4.93c25.64 0 46.43-23.19 46.43-51.79s-20.79-51.79-46.43-51.79c-25.65 0-46.43 23.19-46.43 51.79s20.78 51.79 46.43 51.79zM370.07 41.89l-49.04 136.54H295.7L247.53 41.89h24.76L306 145.48c1.08 3.3 1.9 7.14 2.48 11.52h.38c.44-3.62 1.36-7.52 2.76-11.71l34.47-103.4h23.98zM446.25 178.42h-21.42v-15.23h-.38c-6.73 11.68-16.6 17.52-29.61 17.52-9.59 0-17.09-2.6-22.52-7.81-5.43-5.2-8.14-12.09-8.14-20.66 0-18.41 10.6-29.14 31.8-32.18l28.95-4.09c0-13.9-6.6-20.85-19.8-20.85-11.62 0-22.09 4-31.42 12V87.78c10.28-6.09 22.15-9.14 35.61-9.14 24.63 0 36.94 12.12 36.94 36.37l-.01 63.41zm-21.33-47.89-20.47 2.86c-6.35.83-11.12 2.37-14.33 4.62s-4.81 6.21-4.81 11.85c0 4.13 1.47 7.51 4.43 10.14 2.95 2.63 6.9 3.95 11.86 3.95 6.73 0 12.3-2.36 16.71-7.09s6.62-10.68 6.62-17.85l-.01-8.48zM495.38 178.42h-22.19V34.08h22.19v144.34zM567.36 180.71c-15.04 0-27.06-4.55-36.04-13.66s-13.47-21.19-13.47-36.23c0-16.38 4.68-29.17 14.04-38.37s21.98-13.81 37.85-13.81c15.23 0 27.1 4.47 35.61 13.42s12.76 21.36 12.76 37.23c0 15.55-4.59 28.01-13.76 37.37-9.17 9.37-21.51 14.05-36.99 14.05zm1.04-84.46c-8.63 0-15.46 3.02-20.47 9.05-5.02 6.03-7.52 14.35-7.52 24.95 0 10.22 2.54 18.27 7.62 24.14s11.87 8.81 20.38 8.81c8.7 0 15.38-2.89 20.04-8.67 4.67-5.78 7-14 7-24.66 0-10.73-2.33-19.01-7-24.85-4.67-5.85-11.35-8.77-20.05-8.77zM697.13 101.97c-2.67-2.09-6.51-3.14-11.52-3.14-6.54 0-12 2.95-16.38 8.85s-6.57 13.93-6.57 24.09v46.66h-22.09v-97.5h22.09v20.09h.38c2.16-6.86 5.48-12.2 9.95-16.04 4.47-3.84 9.47-5.76 15-5.76 4 0 7.04.6 9.14 1.81v20.94zM793.59 135.67h-66.46c.25 9.01 3.03 15.96 8.33 20.85s12.58 7.33 21.85 7.33c10.41 0 19.96-3.11 28.66-9.33v17.81c-8.89 5.59-20.63 8.38-35.23 8.38-14.35 0-25.6-4.43-33.75-13.28-8.16-8.86-12.23-21.31-12.23-37.37 0-15.17 4.49-27.53 13.47-37.09 8.98-9.55 20.14-14.33 33.47-14.33 13.33 0 23.64 4.28 30.94 12.85s10.95 20.47 10.95 35.71v8.47zm-21.33-15.61c-.06-7.93-1.94-14.11-5.62-18.52s-8.76-6.62-15.23-6.62c-6.35 0-11.73 2.32-16.14 6.95-4.41 4.63-7.12 10.7-8.14 18.19h45.13zM869.76 52.07c-2.98-1.71-6.38-2.57-10.19-2.57-10.73 0-16.09 6.06-16.09 18.19v13.24h22.66v17.33h-22.57v80.17h-22.09V98.25h-16.66V80.92h16.66v-15.8c0-10.28 3.37-18.39 10.09-24.33 6.73-5.93 15.14-8.9 25.23-8.9 5.46 0 9.77.6 12.95 1.81v18.37h.01z"/>
<script xmlns=""/></svg>