<svg role="img" aria-label="Logo VO2" class="LogoVo2 Footer__footer__top__logo" width="84" height="56" viewBox="0 0 84 56" fill="#ffffff" xmlns="http://www.w3.org/2000/svg"><path d="M73.0901 48.7915L78.679 43.7096C80.4072 42.1173 81.6669 40.5605 82.458 39.0415C83.2466 37.5213 83.6434 35.864 83.6434 34.0684C83.6434 32.3898 83.3148 30.8329 82.66 29.399C82.004 27.9663 81.0948 26.7286 79.9325 25.686C78.7702 24.6434 77.3913 23.8337 75.7969 23.2532C74.7636 22.8785 73.6646 22.6374 72.512 22.505C72.5266 22.174 72.5364 21.8406 72.5364 21.5037C72.5364 18.4775 71.9607 15.6594 70.8118 13.0481C69.6617 10.4368 68.0588 8.15773 65.9995 6.21316C63.9414 4.26859 61.4841 2.74722 58.6289 1.64786C55.7724 0.54968 52.6579 0 49.283 0C45.908 0 42.7461 0.54968 39.9091 1.64786C37.0721 2.74722 34.6331 4.26859 32.5945 6.21316C30.5546 8.15773 28.9591 10.4368 27.8101 13.0481L21.9755 27.0407L11.8494 2.24246H0L17.6342 42.9814H26.3119L30.1944 34.0754C30.9112 35.0436 31.7072 35.9538 32.592 36.7967C34.6306 38.7412 37.0696 40.2638 39.9066 41.362C42.7436 42.4601 45.8679 43.0098 49.2805 43.0098C52.6932 43.0098 55.77 42.4601 58.6264 41.362C61.4817 40.2638 63.939 38.7412 65.997 36.7967C68.0551 34.8509 69.6592 32.5742 70.8093 29.9617C70.83 29.9144 70.8471 29.8648 70.8678 29.8175C71.4495 29.8293 71.9595 29.9333 72.3964 30.139C72.8577 30.3565 73.2532 30.6461 73.5818 31.0079C73.9092 31.3708 74.1551 31.7833 74.3194 32.2455C74.4825 32.7089 74.5652 33.1865 74.5652 33.6794C74.5652 34.1428 74.4898 34.7067 74.3413 35.3734C74.1916 36.0401 73.8119 36.909 73.2009 37.9799C72.5899 39.0509 71.6589 40.3619 70.4065 41.9105C69.1541 43.459 67.4259 45.3492 65.2193 47.5787L56.858 56.0035H84V48.7951H73.0901V48.7915ZM49.2818 32.7444C47.6862 32.7444 46.1746 32.4654 44.7482 31.9063C43.3205 31.3483 42.0682 30.5646 40.9935 29.5562C39.9176 28.5479 39.0644 27.3599 38.4352 25.9898C37.8035 24.6209 37.4895 23.1268 37.4895 21.5049C37.4895 19.8831 37.8035 18.3901 38.4352 17.02C39.0656 15.6511 39.9176 14.4631 40.9935 13.4536C42.0694 12.4452 43.3205 11.6627 44.7482 11.1035C46.1758 10.5456 47.6874 10.2654 49.2818 10.2654C50.8761 10.2654 52.3877 10.5444 53.8154 11.1035C55.243 11.6627 56.5039 12.4452 57.598 13.4536C58.6922 14.4619 59.5539 15.6511 60.1843 17.02C60.8147 18.3889 61.13 19.8831 61.13 21.5049C61.13 23.1268 60.8147 24.6209 60.1843 25.9898C59.5539 27.3587 58.6909 28.5479 57.598 29.5562C56.5039 30.5658 55.243 31.3483 53.8154 31.9063C52.3877 32.4654 50.8761 32.7444 49.2818 32.7444Z"></path><path d="M21.5223 52.6285H24.3524C24.3524 53.2489 24.2204 54.1457 23.6648 54.8594C23.0687 55.6233 22.1589 56 21.1276 56C19.146 56 17.6401 54.5341 17.6401 52.5072C17.6401 50.4803 19.1969 49.0027 21.1589 49.0027C22.1092 49.0027 22.7458 49.3281 23.2713 49.7362C23.5549 49.9602 23.8072 50.2051 24.0804 50.5922L23.7262 50.8768C23.534 50.5514 23.2609 50.2762 23.0791 50.1223C22.6543 49.7666 21.9876 49.4097 21.1485 49.4097C19.4203 49.4097 18.1054 50.7952 18.1054 52.527C18.1054 54.2588 19.3798 55.593 21.1184 55.593C22.2712 55.593 23.1 55.0017 23.4634 54.4419C23.7262 54.0338 23.8882 53.474 23.9079 53.0355H21.5223V52.6285Z"></path><path d="M29.3992 55.8849L27.215 52.6767H27.0124V55.8849H26.568V49.0917H27.5379C28.053 49.0917 28.5183 49.1325 28.9628 49.4381C29.4883 49.8043 29.6607 50.3652 29.6607 50.8947C29.6607 51.5676 29.3679 52.2592 28.5287 52.5449C28.1745 52.6662 27.8516 52.6778 27.7 52.6778L29.9038 55.8861H29.398L29.3992 55.8849ZM27.0136 52.2685H27.6606C28.6213 52.2685 29.1966 51.7589 29.1966 50.883C29.1966 50.2008 28.8632 49.8439 28.6005 49.7016C28.3169 49.5384 27.8319 49.4976 27.5692 49.4976H27.0136V52.2685Z"></path><path d="M38.5801 52.5045C38.5801 54.4602 37.0534 55.9973 35.0822 55.9973C33.111 55.9973 31.5843 54.4591 31.5843 52.5045C31.5843 50.5499 33.111 49 35.0822 49C37.0534 49 38.5801 50.5487 38.5801 52.5045ZM38.1148 52.5045C38.1148 50.7622 36.8207 49.4082 35.0822 49.4082C33.3437 49.4082 32.0496 50.7633 32.0496 52.5045C32.0496 54.2456 33.3437 55.5903 35.0822 55.5903C36.8207 55.5903 38.1148 54.2351 38.1148 52.5045Z"></path><path d="M41.2402 49.0917V53.3391C41.2402 53.9805 41.2703 54.398 41.5238 54.805C41.9185 55.4464 42.6558 55.5899 43.091 55.5899C43.5262 55.5899 44.2635 55.4476 44.6582 54.805C44.9106 54.398 44.9418 53.9805 44.9418 53.3391V49.0917H45.3863V53.3391C45.3863 54.082 45.3458 54.5718 45.002 55.0802C44.4962 55.8243 43.6975 55.9969 43.091 55.9969C42.4845 55.9969 41.6858 55.8243 41.18 55.0802C40.8362 54.5718 40.7957 54.082 40.7957 53.3391V49.0917H41.2402Z"></path><path d="M48.4089 52.6557V55.8849H47.9645V49.0917H49.2689C50.3709 49.0917 51.2401 49.7028 51.2401 50.8644C51.2401 52.0259 50.4415 52.6568 49.2794 52.6568H48.4101L48.4089 52.6557ZM48.4089 52.2487H49.2979C50.1776 52.2487 50.7737 51.7297 50.7737 50.8737C50.7737 50.0177 50.2077 49.4987 49.2273 49.4987H48.4089V52.2487Z"></path></svg>
